<svg width="800" height="600" viewBox="0 0 800 600" xmlns="http://www.w3.org/2000/svg">
  <defs>
    <linearGradient id="bg" x1="0" y1="0" x2="1" y2="1">
      <stop offset="0%" stop-color="hsl(240, 8%, 12%)" />
      <stop offset="100%" stop-color="hsl(240, 10%, 6%)" />
    </linearGradient>
    <radialGradient id="glow" cx="0.25" cy="0.35" r="0.7">
      <stop offset="0%" stop-color="hsla(35, 20%, 70%, 0.35)" />
      <stop offset="70%" stop-color="hsla(35, 20%, 70%, 0.08)" />
      <stop offset="100%" stop-color="transparent" />
    </radialGradient>
  </defs>
  <rect width="800" height="600" fill="url(#bg)" />
  <rect width="800" height="600" fill="url(#glow)" />
  <g opacity="0.8">
    <path d="M420 120c80 10 140 90 120 170-20 80-110 150-160 180-50-30-140-100-160-180-20-80 40-160 120-170 35-5 55-5 80 0z" fill="hsla(35, 12%, 78%, 0.35)" />
    <path d="M440 170c55 8 96 62 82 118-14 56-78 108-122 130-44-22-108-74-122-130-14-56 27-110 82-118 28-4 52-4 80 0z" fill="hsla(0, 0%, 100%, 0.08)" />
  </g>
  <path d="M470 210l90 90-130 130-90-90z" fill="hsla(0, 0%, 100%, 0.12)" />
  <circle cx="160" cy="130" r="2" fill="hsla(0, 0%, 100%, 0.22)" />
  <circle cx="240" cy="210" r="1.4" fill="hsla(0, 0%, 100%, 0.18)" />
  <circle cx="680" cy="150" r="1.6" fill="hsla(0, 0%, 100%, 0.2)" />
  <circle cx="700" cy="420" r="1.8" fill="hsla(0, 0%, 100%, 0.22)" />
</svg>
