<svg width="800" height="600" viewBox="0 0 800 600" xmlns="http://www.w3.org/2000/svg">
  <defs>
    <linearGradient id="bg" x1="0" y1="0" x2="1" y2="1">
      <stop offset="0%" stop-color="hsl(240, 8%, 12%)" />
      <stop offset="100%" stop-color="hsl(240, 10%, 6%)" />
    </linearGradient>
    <radialGradient id="glow" cx="0.35" cy="0.7" r="0.75">
      <stop offset="0%" stop-color="hsla(180, 12%, 65%, 0.28)" />
      <stop offset="70%" stop-color="hsla(180, 12%, 65%, 0.07)" />
      <stop offset="100%" stop-color="transparent" />
    </radialGradient>
  </defs>
  <rect width="800" height="600" fill="url(#bg)" />
  <rect width="800" height="600" fill="url(#glow)" />
  <g opacity="0.85">
    <path d="M420 150c-40 30-30 90 20 120l40 24c35 20 45 60 10 90-40 35-110 20-140-20" fill="none" stroke="hsla(0, 0%, 100%, 0.22)" stroke-width="10" stroke-linecap="round" />
    <path d="M470 180c30 18 50 42 60 70l-20 10c-10-20-25-35-45-48" fill="hsla(0, 0%, 100%, 0.12)" />
    <circle cx="500" cy="260" r="20" fill="hsla(0, 0%, 100%, 0.16)" />
    <circle cx="520" cy="330" r="24" fill="hsla(0, 0%, 100%, 0.18)" />
  </g>
  <circle cx="170" cy="150" r="1.6" fill="hsla(0, 0%, 100%, 0.2)" />
  <circle cx="300" cy="230" r="1.3" fill="hsla(0, 0%, 100%, 0.18)" />
  <circle cx="690" cy="190" r="1.6" fill="hsla(0, 0%, 100%, 0.2)" />
  <circle cx="680" cy="430" r="1.8" fill="hsla(0, 0%, 100%, 0.22)" />
</svg>
